<svg width="12" height="13" viewBox="0 0 12 13" fill="none" xmlns="http://www.w3.org/2000/svg">
<path d="M10.0155 5.51528L6.26552 9.26528C6.23069 9.30014 6.18934 9.3278 6.14381 9.34667C6.09829 9.36555 6.04949 9.37526 6.00021 9.37526C5.95093 9.37526 5.90213 9.36555 5.85661 9.34667C5.81108 9.3278 5.76972 9.30014 5.7349 9.26528L1.9849 5.51528C1.91453 5.44491 1.875 5.34948 1.875 5.24996C1.875 5.15045 1.91453 5.05502 1.9849 4.98465C2.05526 4.91429 2.1507 4.87476 2.25021 4.87476C2.34972 4.87476 2.44516 4.91429 2.51552 4.98465L6.00021 8.46981L9.4849 4.98465C9.51974 4.94981 9.5611 4.92217 9.60662 4.90332C9.65215 4.88446 9.70094 4.87476 9.75021 4.87476C9.79948 4.87476 9.84827 4.88446 9.8938 4.90332C9.93932 4.92217 9.98068 4.94981 10.0155 4.98465C10.0504 5.01949 10.078 5.06086 10.0969 5.10638C10.1157 5.1519 10.1254 5.20069 10.1254 5.24996C10.1254 5.29924 10.1157 5.34803 10.0969 5.39355C10.078 5.43907 10.0504 5.48044 10.0155 5.51528Z" fill="#565D6D"/>
</svg>
